<?xml version="1.0" encoding="utf-8" standalone="no"?>
<!DOCTYPE svg PUBLIC "-//W3C//DTD SVG 1.1//EN"
  "http://www.w3.org/Graphics/SVG/1.1/DTD/svg11.dtd">
<svg xmlns:xlink="http://www.w3.org/1999/xlink" width="460.8pt" height="345.6pt" viewBox="0 0 460.8 345.6" xmlns="http://www.w3.org/2000/svg" version="1.1">
 <metadata>
  <rdf:RDF xmlns:dc="http://purl.org/dc/elements/1.1/" xmlns:cc="http://creativecommons.org/ns#" xmlns:rdf="http://www.w3.org/1999/02/22-rdf-syntax-ns#">
   <cc:Work>
    <dc:type rdf:resource="http://purl.org/dc/dcmitype/StillImage"/>
    <dc:date>2024-12-22T19:18:51.256632</dc:date>
    <dc:format>image/svg+xml</dc:format>
    <dc:creator>
     <cc:Agent>
      <dc:title>Matplotlib v3.9.2, https://matplotlib.org/</dc:title>
     </cc:Agent>
    </dc:creator>
   </cc:Work>
  </rdf:RDF>
 </metadata>
 <defs>
  <style type="text/css">*{stroke-linejoin: round; stroke-linecap: butt}</style>
 </defs>
 <g id="figure_1">
  <g id="patch_1">
   <path d="M 0 345.6 
L 460.8 345.6 
L 460.8 0 
L 0 0 
z
" style="fill: #ffffff"/>
  </g>
  <g id="axes_1">
   <g id="patch_2">
    <path d="M 57.6 307.584 
L 414.72 307.584 
L 414.72 41.472 
L 57.6 41.472 
z
" style="fill: #ffffff"/>
   </g>
   <g id="matplotlib.axis_1">
    <g id="xtick_1">
     <g id="line2d_1">
      <path d="M 112.448026 307.584 
L 112.448026 41.472 
" clip-path="url(#pebafa20400)" style="fill: none; stroke: #b0b0b0; stroke-width: 0.8; stroke-linecap: square"/>
     </g>
     <g id="line2d_2">
      <defs>
       <path id="m050dabc918" d="M 0 0 
L 0 3.5 
" style="stroke: #000000; stroke-width: 0.8"/>
      </defs>
      <g>
       <use xlink:href="#m050dabc918" x="112.448026" y="307.584" style="stroke: #000000; stroke-width: 0.8"/>
      </g>
     </g>
     <g id="text_1">
      <!-- 0 -->
      <g transform="translate(109.266776 322.182437) scale(0.1 -0.1)">
       <defs>
        <path id="DejaVuSans-30" d="M 2034 4250 
Q 1547 4250 1301 3770 
Q 1056 3291 1056 2328 
Q 1056 1369 1301 889 
Q 1547 409 2034 409 
Q 2525 409 2770 889 
Q 3016 1369 3016 2328 
Q 3016 3291 2770 3770 
Q 2525 4250 2034 4250 
z
M 2034 4750 
Q 2819 4750 3233 4129 
Q 3647 3509 3647 2328 
Q 3647 1150 3233 529 
Q 2819 -91 2034 -91 
Q 1250 -91 836 529 
Q 422 1150 422 2328 
Q 422 3509 836 4129 
Q 1250 4750 2034 4750 
z
" transform="scale(0.015625)"/>
       </defs>
       <use xlink:href="#DejaVuSans-30"/>
      </g>
     </g>
    </g>
    <g id="xtick_2">
     <g id="line2d_3">
      <path d="M 183.957837 307.584 
L 183.957837 41.472 
" clip-path="url(#pebafa20400)" style="fill: none; stroke: #b0b0b0; stroke-width: 0.8; stroke-linecap: square"/>
     </g>
     <g id="line2d_4">
      <g>
       <use xlink:href="#m050dabc918" x="183.957837" y="307.584" style="stroke: #000000; stroke-width: 0.8"/>
      </g>
     </g>
     <g id="text_2">
      <!-- 50000 -->
      <g transform="translate(168.051587 322.182437) scale(0.1 -0.1)">
       <defs>
        <path id="DejaVuSans-35" d="M 691 4666 
L 3169 4666 
L 3169 4134 
L 1269 4134 
L 1269 2991 
Q 1406 3038 1543 3061 
Q 1681 3084 1819 3084 
Q 2600 3084 3056 2656 
Q 3513 2228 3513 1497 
Q 3513 744 3044 326 
Q 2575 -91 1722 -91 
Q 1428 -91 1123 -41 
Q 819 9 494 109 
L 494 744 
Q 775 591 1075 516 
Q 1375 441 1709 441 
Q 2250 441 2565 725 
Q 2881 1009 2881 1497 
Q 2881 1984 2565 2268 
Q 2250 2553 1709 2553 
Q 1456 2553 1204 2497 
Q 953 2441 691 2322 
L 691 4666 
z
" transform="scale(0.015625)"/>
       </defs>
       <use xlink:href="#DejaVuSans-35"/>
       <use xlink:href="#DejaVuSans-30" x="63.623047"/>
       <use xlink:href="#DejaVuSans-30" x="127.246094"/>
       <use xlink:href="#DejaVuSans-30" x="190.869141"/>
       <use xlink:href="#DejaVuSans-30" x="254.492188"/>
      </g>
     </g>
    </g>
    <g id="xtick_3">
     <g id="line2d_5">
      <path d="M 255.467649 307.584 
L 255.467649 41.472 
" clip-path="url(#pebafa20400)" style="fill: none; stroke: #b0b0b0; stroke-width: 0.8; stroke-linecap: square"/>
     </g>
     <g id="line2d_6">
      <g>
       <use xlink:href="#m050dabc918" x="255.467649" y="307.584" style="stroke: #000000; stroke-width: 0.8"/>
      </g>
     </g>
     <g id="text_3">
      <!-- 100000 -->
      <g transform="translate(236.380149 322.182437) scale(0.1 -0.1)">
       <defs>
        <path id="DejaVuSans-31" d="M 794 531 
L 1825 531 
L 1825 4091 
L 703 3866 
L 703 4441 
L 1819 4666 
L 2450 4666 
L 2450 531 
L 3481 531 
L 3481 0 
L 794 0 
L 794 531 
z
" transform="scale(0.015625)"/>
       </defs>
       <use xlink:href="#DejaVuSans-31"/>
       <use xlink:href="#DejaVuSans-30" x="63.623047"/>
       <use xlink:href="#DejaVuSans-30" x="127.246094"/>
       <use xlink:href="#DejaVuSans-30" x="190.869141"/>
       <use xlink:href="#DejaVuSans-30" x="254.492188"/>
       <use xlink:href="#DejaVuSans-30" x="318.115234"/>
      </g>
     </g>
    </g>
    <g id="xtick_4">
     <g id="line2d_7">
      <path d="M 326.977461 307.584 
L 326.977461 41.472 
" clip-path="url(#pebafa20400)" style="fill: none; stroke: #b0b0b0; stroke-width: 0.8; stroke-linecap: square"/>
     </g>
     <g id="line2d_8">
      <g>
       <use xlink:href="#m050dabc918" x="326.977461" y="307.584" style="stroke: #000000; stroke-width: 0.8"/>
      </g>
     </g>
     <g id="text_4">
      <!-- 150000 -->
      <g transform="translate(307.889961 322.182437) scale(0.1 -0.1)">
       <use xlink:href="#DejaVuSans-31"/>
       <use xlink:href="#DejaVuSans-35" x="63.623047"/>
       <use xlink:href="#DejaVuSans-30" x="127.246094"/>
       <use xlink:href="#DejaVuSans-30" x="190.869141"/>
       <use xlink:href="#DejaVuSans-30" x="254.492188"/>
       <use xlink:href="#DejaVuSans-30" x="318.115234"/>
      </g>
     </g>
    </g>
    <g id="xtick_5">
     <g id="line2d_9">
      <path d="M 398.487273 307.584 
L 398.487273 41.472 
" clip-path="url(#pebafa20400)" style="fill: none; stroke: #b0b0b0; stroke-width: 0.8; stroke-linecap: square"/>
     </g>
     <g id="line2d_10">
      <g>
       <use xlink:href="#m050dabc918" x="398.487273" y="307.584" style="stroke: #000000; stroke-width: 0.8"/>
      </g>
     </g>
     <g id="text_5">
      <!-- 200000 -->
      <g transform="translate(379.399773 322.182437) scale(0.1 -0.1)">
       <defs>
        <path id="DejaVuSans-32" d="M 1228 531 
L 3431 531 
L 3431 0 
L 469 0 
L 469 531 
Q 828 903 1448 1529 
Q 2069 2156 2228 2338 
Q 2531 2678 2651 2914 
Q 2772 3150 2772 3378 
Q 2772 3750 2511 3984 
Q 2250 4219 1831 4219 
Q 1534 4219 1204 4116 
Q 875 4013 500 3803 
L 500 4441 
Q 881 4594 1212 4672 
Q 1544 4750 1819 4750 
Q 2544 4750 2975 4387 
Q 3406 4025 3406 3419 
Q 3406 3131 3298 2873 
Q 3191 2616 2906 2266 
Q 2828 2175 2409 1742 
Q 1991 1309 1228 531 
z
" transform="scale(0.015625)"/>
       </defs>
       <use xlink:href="#DejaVuSans-32"/>
       <use xlink:href="#DejaVuSans-30" x="63.623047"/>
       <use xlink:href="#DejaVuSans-30" x="127.246094"/>
       <use xlink:href="#DejaVuSans-30" x="190.869141"/>
       <use xlink:href="#DejaVuSans-30" x="254.492188"/>
       <use xlink:href="#DejaVuSans-30" x="318.115234"/>
      </g>
     </g>
    </g>
    <g id="text_6">
     <!-- Temps (ms) -->
     <g transform="translate(207.264687 335.860562) scale(0.1 -0.1)">
      <defs>
       <path id="DejaVuSans-54" d="M -19 4666 
L 3928 4666 
L 3928 4134 
L 2272 4134 
L 2272 0 
L 1638 0 
L 1638 4134 
L -19 4134 
L -19 4666 
z
" transform="scale(0.015625)"/>
       <path id="DejaVuSans-65" d="M 3597 1894 
L 3597 1613 
L 953 1613 
Q 991 1019 1311 708 
Q 1631 397 2203 397 
Q 2534 397 2845 478 
Q 3156 559 3463 722 
L 3463 178 
Q 3153 47 2828 -22 
Q 2503 -91 2169 -91 
Q 1331 -91 842 396 
Q 353 884 353 1716 
Q 353 2575 817 3079 
Q 1281 3584 2069 3584 
Q 2775 3584 3186 3129 
Q 3597 2675 3597 1894 
z
M 3022 2063 
Q 3016 2534 2758 2815 
Q 2500 3097 2075 3097 
Q 1594 3097 1305 2825 
Q 1016 2553 972 2059 
L 3022 2063 
z
" transform="scale(0.015625)"/>
       <path id="DejaVuSans-6d" d="M 3328 2828 
Q 3544 3216 3844 3400 
Q 4144 3584 4550 3584 
Q 5097 3584 5394 3201 
Q 5691 2819 5691 2113 
L 5691 0 
L 5113 0 
L 5113 2094 
Q 5113 2597 4934 2840 
Q 4756 3084 4391 3084 
Q 3944 3084 3684 2787 
Q 3425 2491 3425 1978 
L 3425 0 
L 2847 0 
L 2847 2094 
Q 2847 2600 2669 2842 
Q 2491 3084 2119 3084 
Q 1678 3084 1418 2786 
Q 1159 2488 1159 1978 
L 1159 0 
L 581 0 
L 581 3500 
L 1159 3500 
L 1159 2956 
Q 1356 3278 1631 3431 
Q 1906 3584 2284 3584 
Q 2666 3584 2933 3390 
Q 3200 3197 3328 2828 
z
" transform="scale(0.015625)"/>
       <path id="DejaVuSans-70" d="M 1159 525 
L 1159 -1331 
L 581 -1331 
L 581 3500 
L 1159 3500 
L 1159 2969 
Q 1341 3281 1617 3432 
Q 1894 3584 2278 3584 
Q 2916 3584 3314 3078 
Q 3713 2572 3713 1747 
Q 3713 922 3314 415 
Q 2916 -91 2278 -91 
Q 1894 -91 1617 61 
Q 1341 213 1159 525 
z
M 3116 1747 
Q 3116 2381 2855 2742 
Q 2594 3103 2138 3103 
Q 1681 3103 1420 2742 
Q 1159 2381 1159 1747 
Q 1159 1113 1420 752 
Q 1681 391 2138 391 
Q 2594 391 2855 752 
Q 3116 1113 3116 1747 
z
" transform="scale(0.015625)"/>
       <path id="DejaVuSans-73" d="M 2834 3397 
L 2834 2853 
Q 2591 2978 2328 3040 
Q 2066 3103 1784 3103 
Q 1356 3103 1142 2972 
Q 928 2841 928 2578 
Q 928 2378 1081 2264 
Q 1234 2150 1697 2047 
L 1894 2003 
Q 2506 1872 2764 1633 
Q 3022 1394 3022 966 
Q 3022 478 2636 193 
Q 2250 -91 1575 -91 
Q 1294 -91 989 -36 
Q 684 19 347 128 
L 347 722 
Q 666 556 975 473 
Q 1284 391 1588 391 
Q 1994 391 2212 530 
Q 2431 669 2431 922 
Q 2431 1156 2273 1281 
Q 2116 1406 1581 1522 
L 1381 1569 
Q 847 1681 609 1914 
Q 372 2147 372 2553 
Q 372 3047 722 3315 
Q 1072 3584 1716 3584 
Q 2034 3584 2315 3537 
Q 2597 3491 2834 3397 
z
" transform="scale(0.015625)"/>
       <path id="DejaVuSans-20" transform="scale(0.015625)"/>
       <path id="DejaVuSans-28" d="M 1984 4856 
Q 1566 4138 1362 3434 
Q 1159 2731 1159 2009 
Q 1159 1288 1364 580 
Q 1569 -128 1984 -844 
L 1484 -844 
Q 1016 -109 783 600 
Q 550 1309 550 2009 
Q 550 2706 781 3412 
Q 1013 4119 1484 4856 
L 1984 4856 
z
" transform="scale(0.015625)"/>
       <path id="DejaVuSans-29" d="M 513 4856 
L 1013 4856 
Q 1481 4119 1714 3412 
Q 1947 2706 1947 2009 
Q 1947 1309 1714 600 
Q 1481 -109 1013 -844 
L 513 -844 
Q 928 -128 1133 580 
Q 1338 1288 1338 2009 
Q 1338 2731 1133 3434 
Q 928 4138 513 4856 
z
" transform="scale(0.015625)"/>
      </defs>
      <use xlink:href="#DejaVuSans-54"/>
      <use xlink:href="#DejaVuSans-65" x="44.083984"/>
      <use xlink:href="#DejaVuSans-6d" x="105.607422"/>
      <use xlink:href="#DejaVuSans-70" x="203.019531"/>
      <use xlink:href="#DejaVuSans-73" x="266.496094"/>
      <use xlink:href="#DejaVuSans-20" x="318.595703"/>
      <use xlink:href="#DejaVuSans-28" x="350.382812"/>
      <use xlink:href="#DejaVuSans-6d" x="389.396484"/>
      <use xlink:href="#DejaVuSans-73" x="486.808594"/>
      <use xlink:href="#DejaVuSans-29" x="538.908203"/>
     </g>
    </g>
   </g>
   <g id="matplotlib.axis_2">
    <g id="ytick_1">
     <g id="line2d_11">
      <path d="M 57.6 307.584 
L 414.72 307.584 
" clip-path="url(#pebafa20400)" style="fill: none; stroke: #b0b0b0; stroke-width: 0.8; stroke-linecap: square"/>
     </g>
     <g id="line2d_12">
      <defs>
       <path id="me099c9972f" d="M 0 0 
L -3.5 0 
" style="stroke: #000000; stroke-width: 0.8"/>
      </defs>
      <g>
       <use xlink:href="#me099c9972f" x="57.6" y="307.584" style="stroke: #000000; stroke-width: 0.8"/>
      </g>
     </g>
     <g id="text_7">
      <!-- −50 -->
      <g transform="translate(29.495313 311.383219) scale(0.1 -0.1)">
       <defs>
        <path id="DejaVuSans-2212" d="M 678 2272 
L 4684 2272 
L 4684 1741 
L 678 1741 
L 678 2272 
z
" transform="scale(0.015625)"/>
       </defs>
       <use xlink:href="#DejaVuSans-2212"/>
       <use xlink:href="#DejaVuSans-35" x="83.789062"/>
       <use xlink:href="#DejaVuSans-30" x="147.412109"/>
      </g>
     </g>
    </g>
    <g id="ytick_2">
     <g id="line2d_13">
      <path d="M 57.6 254.3616 
L 414.72 254.3616 
" clip-path="url(#pebafa20400)" style="fill: none; stroke: #b0b0b0; stroke-width: 0.8; stroke-linecap: square"/>
     </g>
     <g id="line2d_14">
      <g>
       <use xlink:href="#me099c9972f" x="57.6" y="254.3616" style="stroke: #000000; stroke-width: 0.8"/>
      </g>
     </g>
     <g id="text_8">
      <!-- 0 -->
      <g transform="translate(44.2375 258.160819) scale(0.1 -0.1)">
       <use xlink:href="#DejaVuSans-30"/>
      </g>
     </g>
    </g>
    <g id="ytick_3">
     <g id="line2d_15">
      <path d="M 57.6 201.1392 
L 414.72 201.1392 
" clip-path="url(#pebafa20400)" style="fill: none; stroke: #b0b0b0; stroke-width: 0.8; stroke-linecap: square"/>
     </g>
     <g id="line2d_16">
      <g>
       <use xlink:href="#me099c9972f" x="57.6" y="201.1392" style="stroke: #000000; stroke-width: 0.8"/>
      </g>
     </g>
     <g id="text_9">
      <!-- 50 -->
      <g transform="translate(37.875 204.938419) scale(0.1 -0.1)">
       <use xlink:href="#DejaVuSans-35"/>
       <use xlink:href="#DejaVuSans-30" x="63.623047"/>
      </g>
     </g>
    </g>
    <g id="ytick_4">
     <g id="line2d_17">
      <path d="M 57.6 147.9168 
L 414.72 147.9168 
" clip-path="url(#pebafa20400)" style="fill: none; stroke: #b0b0b0; stroke-width: 0.8; stroke-linecap: square"/>
     </g>
     <g id="line2d_18">
      <g>
       <use xlink:href="#me099c9972f" x="57.6" y="147.9168" style="stroke: #000000; stroke-width: 0.8"/>
      </g>
     </g>
     <g id="text_10">
      <!-- 100 -->
      <g transform="translate(31.5125 151.716019) scale(0.1 -0.1)">
       <use xlink:href="#DejaVuSans-31"/>
       <use xlink:href="#DejaVuSans-30" x="63.623047"/>
       <use xlink:href="#DejaVuSans-30" x="127.246094"/>
      </g>
     </g>
    </g>
    <g id="ytick_5">
     <g id="line2d_19">
      <path d="M 57.6 94.6944 
L 414.72 94.6944 
" clip-path="url(#pebafa20400)" style="fill: none; stroke: #b0b0b0; stroke-width: 0.8; stroke-linecap: square"/>
     </g>
     <g id="line2d_20">
      <g>
       <use xlink:href="#me099c9972f" x="57.6" y="94.6944" style="stroke: #000000; stroke-width: 0.8"/>
      </g>
     </g>
     <g id="text_11">
      <!-- 150 -->
      <g transform="translate(31.5125 98.493619) scale(0.1 -0.1)">
       <use xlink:href="#DejaVuSans-31"/>
       <use xlink:href="#DejaVuSans-35" x="63.623047"/>
       <use xlink:href="#DejaVuSans-30" x="127.246094"/>
      </g>
     </g>
    </g>
    <g id="ytick_6">
     <g id="line2d_21">
      <path d="M 57.6 41.472 
L 414.72 41.472 
" clip-path="url(#pebafa20400)" style="fill: none; stroke: #b0b0b0; stroke-width: 0.8; stroke-linecap: square"/>
     </g>
     <g id="line2d_22">
      <g>
       <use xlink:href="#me099c9972f" x="57.6" y="41.472" style="stroke: #000000; stroke-width: 0.8"/>
      </g>
     </g>
     <g id="text_12">
      <!-- 200 -->
      <g transform="translate(31.5125 45.271219) scale(0.1 -0.1)">
       <use xlink:href="#DejaVuSans-32"/>
       <use xlink:href="#DejaVuSans-30" x="63.623047"/>
       <use xlink:href="#DejaVuSans-30" x="127.246094"/>
      </g>
     </g>
    </g>
    <g id="text_13">
     <!-- Vitesse (m.s-1) -->
     <g transform="translate(23.415625 212.087375) rotate(-90) scale(0.1 -0.1)">
      <defs>
       <path id="DejaVuSans-56" d="M 1831 0 
L 50 4666 
L 709 4666 
L 2188 738 
L 3669 4666 
L 4325 4666 
L 2547 0 
L 1831 0 
z
" transform="scale(0.015625)"/>
       <path id="DejaVuSans-69" d="M 603 3500 
L 1178 3500 
L 1178 0 
L 603 0 
L 603 3500 
z
M 603 4863 
L 1178 4863 
L 1178 4134 
L 603 4134 
L 603 4863 
z
" transform="scale(0.015625)"/>
       <path id="DejaVuSans-74" d="M 1172 4494 
L 1172 3500 
L 2356 3500 
L 2356 3053 
L 1172 3053 
L 1172 1153 
Q 1172 725 1289 603 
Q 1406 481 1766 481 
L 2356 481 
L 2356 0 
L 1766 0 
Q 1100 0 847 248 
Q 594 497 594 1153 
L 594 3053 
L 172 3053 
L 172 3500 
L 594 3500 
L 594 4494 
L 1172 4494 
z
" transform="scale(0.015625)"/>
       <path id="DejaVuSans-2e" d="M 684 794 
L 1344 794 
L 1344 0 
L 684 0 
L 684 794 
z
" transform="scale(0.015625)"/>
       <path id="DejaVuSans-2d" d="M 313 2009 
L 1997 2009 
L 1997 1497 
L 313 1497 
L 313 2009 
z
" transform="scale(0.015625)"/>
      </defs>
      <use xlink:href="#DejaVuSans-56"/>
      <use xlink:href="#DejaVuSans-69" x="66.158203"/>
      <use xlink:href="#DejaVuSans-74" x="93.941406"/>
      <use xlink:href="#DejaVuSans-65" x="133.150391"/>
      <use xlink:href="#DejaVuSans-73" x="194.673828"/>
      <use xlink:href="#DejaVuSans-73" x="246.773438"/>
      <use xlink:href="#DejaVuSans-65" x="298.873047"/>
      <use xlink:href="#DejaVuSans-20" x="360.396484"/>
      <use xlink:href="#DejaVuSans-28" x="392.183594"/>
      <use xlink:href="#DejaVuSans-6d" x="431.197266"/>
      <use xlink:href="#DejaVuSans-2e" x="528.609375"/>
      <use xlink:href="#DejaVuSans-73" x="560.396484"/>
      <use xlink:href="#DejaVuSans-2d" x="612.496094"/>
      <use xlink:href="#DejaVuSans-31" x="648.580078"/>
      <use xlink:href="#DejaVuSans-29" x="712.203125"/>
     </g>
    </g>
   </g>
   <g id="line2d_23">
    <path d="M 73.832727 255.314949 
L 74.547825 253.884932 
L 75.262924 254.3616 
L 75.978022 255.314925 
L 76.69312 253.408275 
L 77.408218 254.838268 
L 78.123316 253.884932 
L 78.838414 254.838268 
L 79.553512 253.408251 
L 80.26861 253.884907 
L 80.983708 255.791642 
L 81.698807 253.410154 
L 82.415335 254.3616 
L 83.129003 254.3616 
L 83.844101 253.884907 
L 84.559199 253.884895 
L 85.274297 255.314997 
L 85.989395 255.314949 
L 86.704493 251.978137 
L 87.419592 255.315021 
L 88.13469 253.884895 
L 88.849788 255.791678 
L 89.564886 252.931522 
L 90.279984 255.314997 
L 90.995082 255.791605 
L 91.71018 251.978197 
L 92.425278 255.791678 
L 93.140376 254.838268 
L 93.855475 252.454854 
L 94.570573 254.838305 
L 95.285671 254.3616 
L 96.000769 254.838293 
L 96.715867 253.884907 
L 98.146063 254.838293 
L 98.861161 253.884907 
L 99.57626 253.884895 
L 100.291358 252.454661 
L 101.006456 256.268539 
L 101.721554 252.931414 
L 102.436652 256.268491 
L 103.15175 252.93145 
L 103.866848 255.315045 
L 104.581946 255.313094 
L 105.298475 254.3616 
L 106.012143 252.931486 
L 106.727241 255.315021 
L 107.442339 254.838293 
L 108.157437 254.838281 
L 108.872535 253.884919 
L 111.017829 253.884883 
L 111.732928 254.838317 
L 112.448026 232.420153 
L 113.163124 181.19825 
L 113.878222 106.695035 
L 114.59332 58.259511 
L 115.308418 111.344159 
L 116.023516 107.774129 
L 116.738614 107.624631 
L 117.453712 122.572273 
L 118.168811 124.683094 
L 118.883909 141.111957 
L 119.599007 138.37788 
L 120.314105 151.578896 
L 121.029203 148.424783 
L 121.744301 161.371541 
L 122.459399 177.651106 
L 123.174497 166.834056 
L 123.889596 176.978816 
L 124.604694 174.011466 
L 125.319792 211.403214 
L 126.03489 186.276632 
L 126.749988 197.792093 
L 127.465086 196.665101 
L 128.181614 212.414189 
L 128.895282 212.943453 
L 130.325479 220.338182 
L 131.040577 228.397737 
L 131.755675 233.781497 
L 132.470773 234.301478 
L 133.900969 236.434066 
L 134.616067 246.750828 
L 135.331165 251.642723 
L 136.046264 252.730085 
L 136.761362 258.711992 
L 137.47646 259.254592 
L 138.191558 234.782013 
L 138.906656 296.758379 
L 139.621754 250.560651 
L 140.336852 270.64599 
L 141.05195 273.884327 
L 141.767048 272.239698 
L 142.482147 255.986042 
L 143.197245 274.92576 
L 143.912343 260.85089 
L 144.627441 273.275952 
L 145.342539 267.860248 
L 146.057637 265.153566 
L 146.772735 261.373068 
L 147.487833 273.764381 
L 148.202932 272.668139 
L 148.91803 264.046108 
L 149.633128 268.879045 
L 150.348226 267.766912 
L 151.064754 270.499806 
L 151.778422 266.700172 
L 152.49352 269.371584 
L 153.208618 269.359648 
L 153.923716 267.742643 
L 154.638815 269.871726 
L 155.353913 269.324801 
L 156.069011 268.245379 
L 156.784109 267.701757 
L 157.499207 267.692328 
L 158.214305 278.333192 
L 158.929403 272.453284 
L 159.644501 268.184717 
L 160.3596 271.891749 
L 161.074698 268.161766 
L 161.789796 271.862666 
L 162.504894 269.72793 
L 163.219992 268.656938 
L 163.93509 268.117248 
L 164.650188 281.314727 
L 165.365286 261.753765 
L 166.080384 272.301947 
L 166.795483 265.433883 
L 168.225679 270.682674 
L 168.940777 265.935736 
L 169.655875 271.709497 
L 170.370973 265.918006 
L 171.086071 269.05952 
L 171.801169 270.620947 
L 172.516268 269.035424 
L 173.231366 270.561913 
L 173.947894 269.564811 
L 174.661562 266.909179 
L 175.37666 265.856219 
L 175.523921 346.6 
M 176.37853 346.6 
L 176.698693 -1 
M 177.024214 -1 
L 177.521954 267.914987 
L 178.237052 269.98803 
L 178.952151 268.934597 
L 179.667249 269.96304 
L 180.382347 267.352949 
L 181.097445 272.534468 
L 181.812543 264.73824 
L 182.527641 269.915863 
L 183.242739 268.867348 
L 183.957837 272.47811 
L 184.672936 268.325313 
L 185.388034 270.381273 
L 186.103132 264.689656 
L 186.81823 269.327243 
L 187.533328 277.560665 
L 188.248426 270.326594 
L 188.963524 269.798738 
L 189.678622 270.813966 
L 191.823917 266.160203 
L 192.539015 260.001802 
L 193.254113 265.124577 
L 193.969211 293.262071 
L 194.684309 272.249343 
L 195.399407 268.149134 
L 196.114505 272.692652 
L 196.831034 258.959932 
L 197.544702 282.891155 
L 198.2598 273.696392 
L 198.974898 269.103776 
L 199.689996 273.661508 
L 200.405094 267.55543 
L 201.120192 268.560026 
L 201.83529 268.549345 
L 202.550388 271.57524 
L 203.265487 268.525752 
L 203.980585 250.821559 
L 204.695683 286.198074 
L 205.410781 279.086202 
L 205.461039 346.6 
M 206.45424 346.6 
L 206.58204 -1 
M 207.155408 -1 
L 207.310597 346.6 
M 207.871401 346.6 
L 208.070747 -1 
M 208.67497 -1 
L 208.986272 268.428412 
L 209.70137 240.797355 
L 210.416468 277.967148 
L 211.131566 301.984921 
L 211.846664 257.865935 
L 212.561762 275.873954 
L 213.27686 280.343805 
L 213.991958 269.833979 
L 214.707056 267.328654 
L 215.422155 271.305076 
L 216.137253 269.299096 
L 216.852351 269.287275 
L 217.567449 271.263098 
L 218.282547 267.276063 
L 218.997645 271.20273 
L 220.427841 267.245525 
L 221.14294 273.671001 
L 221.858038 266.729031 
L 222.573136 270.674202 
L 223.288234 259.796 
L 224.003332 273.122943 
L 224.71843 279.512002 
L 225.433528 262.73762 
L 226.148626 260.271846 
L 227.578823 283.857378 
L 228.293921 270.07384 
L 229.009019 269.079947 
L 229.724117 245.53197 
L 230.439215 302.87349 
L 231.154313 240.653715 
L 231.869411 293.011846 
L 232.584509 271.459841 
L 233.299608 265.589153 
L 234.014706 268.02091 
L 234.729804 257.287308 
L 235.444902 278.237913 
L 236.16 278.207726 
L 236.875098 269.432368 
L 237.590196 268.449167 
L 238.305294 274.745646 
L 239.020392 258.241779 
L 239.735491 277.625925 
L 240.450589 248.548209 
L 241.165687 292.116654 
L 241.880785 274.137391 
L 242.597313 274.195814 
L 243.310981 266.903483 
L 244.026079 268.340791 
L 244.741177 272.18209 
L 245.456276 265.91184 
L 246.171374 272.635027 
L 246.886472 256.284089 
L 247.60157 268.774026 
L 248.316668 279.317078 
L 249.031766 271.619147 
L 250.461962 271.587623 
L 251.17706 263.446773 
L 251.892159 275.384161 
L 252.607257 267.250216 
L 253.322355 265.810758 
L 254.037453 253.88469 
L 254.752551 263.8975 
L 255.467649 295.31112 
L 256.182747 267.199528 
L 256.897845 264.815677 
L 257.612944 270.506512 
L 258.328042 264.800948 
L 259.04314 264.321045 
L 259.758238 267.632684 
L 260.473336 282.768232 
L 261.188434 262.402373 
L 261.903532 253.888708 
L 262.61863 252.469914 
L 263.333728 254.3616 
L 264.048827 254.834539 
L 264.763925 253.417598 
L 266.194121 253.415615 
L 266.909219 255.307585 
L 267.624317 253.415615 
L 268.339415 255.78056 
L 269.054513 252.94264 
L 269.769612 254.3616 
L 270.48471 253.415567 
L 271.199808 254.3616 
L 271.914906 254.834622 
L 272.630004 254.3616 
L 273.345102 252.942498 
L 274.0602 255.30768 
L 274.775298 253.41552 
L 275.490396 254.834646 
L 276.205495 254.3616 
L 276.920593 254.3616 
L 277.635691 252.469345 
L 278.350789 254.3616 
L 279.065887 254.834682 
L 279.780985 254.3616 
L 280.496083 252.94232 
L 281.211181 254.3616 
L 281.92628 254.3616 
L 282.641378 254.834705 
L 284.071574 252.942213 
L 284.786672 254.3616 
L 285.50177 253.888447 
L 286.216868 255.307894 
L 286.931966 252.942142 
L 286.931966 252.942142 
" clip-path="url(#pebafa20400)" style="fill: none; stroke: #1f77b4; stroke-width: 1.5; stroke-linecap: square"/>
   </g>
   <g id="LineCollection_1">
    <path d="M 136.761362 268.912261 
L 266.194121 268.912261 
" clip-path="url(#pebafa20400)" style="fill: none; stroke: #ff7f0e; stroke-width: 1.5"/>
   </g>
   <g id="line2d_24">
    <path d="M 112.448026 253.659124 
L 114.641359 50.881681 
L 114.808243 45.360813 
L 114.832083 45.401758 
L 115.189692 52.553924 
L 116.596286 78.33495 
L 118.098242 101.828281 
L 119.719402 123.711439 
L 121.459764 144.218912 
L 123.36701 164.070371 
L 125.488821 183.812453 
L 127.92056 204.314672 
L 130.876792 227.287298 
L 135.35882 260.201445 
L 135.978675 263.043547 
L 136.527009 264.586102 
L 137.051501 265.448878 
L 137.623675 265.967703 
L 138.291211 266.267421 
L 139.268675 266.439175 
L 141.247443 266.509585 
L 155.074978 266.516814 
L 297.474746 266.516814 
L 297.713152 254.3616 
L 398.487273 254.3616 
L 398.487273 254.3616 
" clip-path="url(#pebafa20400)" style="fill: none; stroke: #d62728; stroke-width: 1.5; stroke-linecap: square"/>
   </g>
   <g id="patch_3">
    <path d="M 57.6 307.584 
L 57.6 41.472 
" style="fill: none; stroke: #000000; stroke-width: 0.8; stroke-linejoin: miter; stroke-linecap: square"/>
   </g>
   <g id="patch_4">
    <path d="M 414.72 307.584 
L 414.72 41.472 
" style="fill: none; stroke: #000000; stroke-width: 0.8; stroke-linejoin: miter; stroke-linecap: square"/>
   </g>
   <g id="patch_5">
    <path d="M 57.6 307.584 
L 414.72 307.584 
" style="fill: none; stroke: #000000; stroke-width: 0.8; stroke-linejoin: miter; stroke-linecap: square"/>
   </g>
   <g id="patch_6">
    <path d="M 57.6 41.472 
L 414.72 41.472 
" style="fill: none; stroke: #000000; stroke-width: 0.8; stroke-linejoin: miter; stroke-linecap: square"/>
   </g>
   <g id="text_14">
    <!-- Vitesse z calculée des données du BMP180 -->
    <g transform="translate(106.954688 35.472) scale(0.12 -0.12)">
     <defs>
      <path id="DejaVuSans-7a" d="M 353 3500 
L 3084 3500 
L 3084 2975 
L 922 459 
L 3084 459 
L 3084 0 
L 275 0 
L 275 525 
L 2438 3041 
L 353 3041 
L 353 3500 
z
" transform="scale(0.015625)"/>
      <path id="DejaVuSans-63" d="M 3122 3366 
L 3122 2828 
Q 2878 2963 2633 3030 
Q 2388 3097 2138 3097 
Q 1578 3097 1268 2742 
Q 959 2388 959 1747 
Q 959 1106 1268 751 
Q 1578 397 2138 397 
Q 2388 397 2633 464 
Q 2878 531 3122 666 
L 3122 134 
Q 2881 22 2623 -34 
Q 2366 -91 2075 -91 
Q 1284 -91 818 406 
Q 353 903 353 1747 
Q 353 2603 823 3093 
Q 1294 3584 2113 3584 
Q 2378 3584 2631 3529 
Q 2884 3475 3122 3366 
z
" transform="scale(0.015625)"/>
      <path id="DejaVuSans-61" d="M 2194 1759 
Q 1497 1759 1228 1600 
Q 959 1441 959 1056 
Q 959 750 1161 570 
Q 1363 391 1709 391 
Q 2188 391 2477 730 
Q 2766 1069 2766 1631 
L 2766 1759 
L 2194 1759 
z
M 3341 1997 
L 3341 0 
L 2766 0 
L 2766 531 
Q 2569 213 2275 61 
Q 1981 -91 1556 -91 
Q 1019 -91 701 211 
Q 384 513 384 1019 
Q 384 1609 779 1909 
Q 1175 2209 1959 2209 
L 2766 2209 
L 2766 2266 
Q 2766 2663 2505 2880 
Q 2244 3097 1772 3097 
Q 1472 3097 1187 3025 
Q 903 2953 641 2809 
L 641 3341 
Q 956 3463 1253 3523 
Q 1550 3584 1831 3584 
Q 2591 3584 2966 3190 
Q 3341 2797 3341 1997 
z
" transform="scale(0.015625)"/>
      <path id="DejaVuSans-6c" d="M 603 4863 
L 1178 4863 
L 1178 0 
L 603 0 
L 603 4863 
z
" transform="scale(0.015625)"/>
      <path id="DejaVuSans-75" d="M 544 1381 
L 544 3500 
L 1119 3500 
L 1119 1403 
Q 1119 906 1312 657 
Q 1506 409 1894 409 
Q 2359 409 2629 706 
Q 2900 1003 2900 1516 
L 2900 3500 
L 3475 3500 
L 3475 0 
L 2900 0 
L 2900 538 
Q 2691 219 2414 64 
Q 2138 -91 1772 -91 
Q 1169 -91 856 284 
Q 544 659 544 1381 
z
M 1991 3584 
L 1991 3584 
z
" transform="scale(0.015625)"/>
      <path id="DejaVuSans-e9" d="M 3597 1894 
L 3597 1613 
L 953 1613 
Q 991 1019 1311 708 
Q 1631 397 2203 397 
Q 2534 397 2845 478 
Q 3156 559 3463 722 
L 3463 178 
Q 3153 47 2828 -22 
Q 2503 -91 2169 -91 
Q 1331 -91 842 396 
Q 353 884 353 1716 
Q 353 2575 817 3079 
Q 1281 3584 2069 3584 
Q 2775 3584 3186 3129 
Q 3597 2675 3597 1894 
z
M 3022 2063 
Q 3016 2534 2758 2815 
Q 2500 3097 2075 3097 
Q 1594 3097 1305 2825 
Q 1016 2553 972 2059 
L 3022 2063 
z
M 2469 5119 
L 3091 5119 
L 2072 3944 
L 1594 3944 
L 2469 5119 
z
" transform="scale(0.015625)"/>
      <path id="DejaVuSans-64" d="M 2906 2969 
L 2906 4863 
L 3481 4863 
L 3481 0 
L 2906 0 
L 2906 525 
Q 2725 213 2448 61 
Q 2172 -91 1784 -91 
Q 1150 -91 751 415 
Q 353 922 353 1747 
Q 353 2572 751 3078 
Q 1150 3584 1784 3584 
Q 2172 3584 2448 3432 
Q 2725 3281 2906 2969 
z
M 947 1747 
Q 947 1113 1208 752 
Q 1469 391 1925 391 
Q 2381 391 2643 752 
Q 2906 1113 2906 1747 
Q 2906 2381 2643 2742 
Q 2381 3103 1925 3103 
Q 1469 3103 1208 2742 
Q 947 2381 947 1747 
z
" transform="scale(0.015625)"/>
      <path id="DejaVuSans-6f" d="M 1959 3097 
Q 1497 3097 1228 2736 
Q 959 2375 959 1747 
Q 959 1119 1226 758 
Q 1494 397 1959 397 
Q 2419 397 2687 759 
Q 2956 1122 2956 1747 
Q 2956 2369 2687 2733 
Q 2419 3097 1959 3097 
z
M 1959 3584 
Q 2709 3584 3137 3096 
Q 3566 2609 3566 1747 
Q 3566 888 3137 398 
Q 2709 -91 1959 -91 
Q 1206 -91 779 398 
Q 353 888 353 1747 
Q 353 2609 779 3096 
Q 1206 3584 1959 3584 
z
" transform="scale(0.015625)"/>
      <path id="DejaVuSans-6e" d="M 3513 2113 
L 3513 0 
L 2938 0 
L 2938 2094 
Q 2938 2591 2744 2837 
Q 2550 3084 2163 3084 
Q 1697 3084 1428 2787 
Q 1159 2491 1159 1978 
L 1159 0 
L 581 0 
L 581 3500 
L 1159 3500 
L 1159 2956 
Q 1366 3272 1645 3428 
Q 1925 3584 2291 3584 
Q 2894 3584 3203 3211 
Q 3513 2838 3513 2113 
z
" transform="scale(0.015625)"/>
      <path id="DejaVuSans-42" d="M 1259 2228 
L 1259 519 
L 2272 519 
Q 2781 519 3026 730 
Q 3272 941 3272 1375 
Q 3272 1813 3026 2020 
Q 2781 2228 2272 2228 
L 1259 2228 
z
M 1259 4147 
L 1259 2741 
L 2194 2741 
Q 2656 2741 2882 2914 
Q 3109 3088 3109 3444 
Q 3109 3797 2882 3972 
Q 2656 4147 2194 4147 
L 1259 4147 
z
M 628 4666 
L 2241 4666 
Q 2963 4666 3353 4366 
Q 3744 4066 3744 3513 
Q 3744 3084 3544 2831 
Q 3344 2578 2956 2516 
Q 3422 2416 3680 2098 
Q 3938 1781 3938 1306 
Q 3938 681 3513 340 
Q 3088 0 2303 0 
L 628 0 
L 628 4666 
z
" transform="scale(0.015625)"/>
      <path id="DejaVuSans-4d" d="M 628 4666 
L 1569 4666 
L 2759 1491 
L 3956 4666 
L 4897 4666 
L 4897 0 
L 4281 0 
L 4281 4097 
L 3078 897 
L 2444 897 
L 1241 4097 
L 1241 0 
L 628 0 
L 628 4666 
z
" transform="scale(0.015625)"/>
      <path id="DejaVuSans-50" d="M 1259 4147 
L 1259 2394 
L 2053 2394 
Q 2494 2394 2734 2622 
Q 2975 2850 2975 3272 
Q 2975 3691 2734 3919 
Q 2494 4147 2053 4147 
L 1259 4147 
z
M 628 4666 
L 2053 4666 
Q 2838 4666 3239 4311 
Q 3641 3956 3641 3272 
Q 3641 2581 3239 2228 
Q 2838 1875 2053 1875 
L 1259 1875 
L 1259 0 
L 628 0 
L 628 4666 
z
" transform="scale(0.015625)"/>
      <path id="DejaVuSans-38" d="M 2034 2216 
Q 1584 2216 1326 1975 
Q 1069 1734 1069 1313 
Q 1069 891 1326 650 
Q 1584 409 2034 409 
Q 2484 409 2743 651 
Q 3003 894 3003 1313 
Q 3003 1734 2745 1975 
Q 2488 2216 2034 2216 
z
M 1403 2484 
Q 997 2584 770 2862 
Q 544 3141 544 3541 
Q 544 4100 942 4425 
Q 1341 4750 2034 4750 
Q 2731 4750 3128 4425 
Q 3525 4100 3525 3541 
Q 3525 3141 3298 2862 
Q 3072 2584 2669 2484 
Q 3125 2378 3379 2068 
Q 3634 1759 3634 1313 
Q 3634 634 3220 271 
Q 2806 -91 2034 -91 
Q 1263 -91 848 271 
Q 434 634 434 1313 
Q 434 1759 690 2068 
Q 947 2378 1403 2484 
z
M 1172 3481 
Q 1172 3119 1398 2916 
Q 1625 2713 2034 2713 
Q 2441 2713 2670 2916 
Q 2900 3119 2900 3481 
Q 2900 3844 2670 4047 
Q 2441 4250 2034 4250 
Q 1625 4250 1398 4047 
Q 1172 3844 1172 3481 
z
" transform="scale(0.015625)"/>
     </defs>
     <use xlink:href="#DejaVuSans-56"/>
     <use xlink:href="#DejaVuSans-69" x="66.158203"/>
     <use xlink:href="#DejaVuSans-74" x="93.941406"/>
     <use xlink:href="#DejaVuSans-65" x="133.150391"/>
     <use xlink:href="#DejaVuSans-73" x="194.673828"/>
     <use xlink:href="#DejaVuSans-73" x="246.773438"/>
     <use xlink:href="#DejaVuSans-65" x="298.873047"/>
     <use xlink:href="#DejaVuSans-20" x="360.396484"/>
     <use xlink:href="#DejaVuSans-7a" x="392.183594"/>
     <use xlink:href="#DejaVuSans-20" x="444.673828"/>
     <use xlink:href="#DejaVuSans-63" x="476.460938"/>
     <use xlink:href="#DejaVuSans-61" x="531.441406"/>
     <use xlink:href="#DejaVuSans-6c" x="592.720703"/>
     <use xlink:href="#DejaVuSans-63" x="620.503906"/>
     <use xlink:href="#DejaVuSans-75" x="675.484375"/>
     <use xlink:href="#DejaVuSans-6c" x="738.863281"/>
     <use xlink:href="#DejaVuSans-e9" x="766.646484"/>
     <use xlink:href="#DejaVuSans-65" x="828.169922"/>
     <use xlink:href="#DejaVuSans-20" x="889.693359"/>
     <use xlink:href="#DejaVuSans-64" x="921.480469"/>
     <use xlink:href="#DejaVuSans-65" x="984.957031"/>
     <use xlink:href="#DejaVuSans-73" x="1046.480469"/>
     <use xlink:href="#DejaVuSans-20" x="1098.580078"/>
     <use xlink:href="#DejaVuSans-64" x="1130.367188"/>
     <use xlink:href="#DejaVuSans-6f" x="1193.84375"/>
     <use xlink:href="#DejaVuSans-6e" x="1255.025391"/>
     <use xlink:href="#DejaVuSans-6e" x="1318.404297"/>
     <use xlink:href="#DejaVuSans-e9" x="1381.783203"/>
     <use xlink:href="#DejaVuSans-65" x="1443.306641"/>
     <use xlink:href="#DejaVuSans-73" x="1504.830078"/>
     <use xlink:href="#DejaVuSans-20" x="1556.929688"/>
     <use xlink:href="#DejaVuSans-64" x="1588.716797"/>
     <use xlink:href="#DejaVuSans-75" x="1652.193359"/>
     <use xlink:href="#DejaVuSans-20" x="1715.572266"/>
     <use xlink:href="#DejaVuSans-42" x="1747.359375"/>
     <use xlink:href="#DejaVuSans-4d" x="1815.962891"/>
     <use xlink:href="#DejaVuSans-50" x="1902.242188"/>
     <use xlink:href="#DejaVuSans-31" x="1962.544922"/>
     <use xlink:href="#DejaVuSans-38" x="2026.167969"/>
     <use xlink:href="#DejaVuSans-30" x="2089.791016"/>
    </g>
   </g>
   <g id="legend_1">
    <g id="patch_7">
     <path d="M 190.730937 93.506375 
L 407.72 93.506375 
Q 409.72 93.506375 409.72 91.506375 
L 409.72 48.472 
Q 409.72 46.472 407.72 46.472 
L 190.730937 46.472 
Q 188.730937 46.472 188.730937 48.472 
L 188.730937 91.506375 
Q 188.730937 93.506375 190.730937 93.506375 
z
" style="fill: #ffffff; opacity: 0.8; stroke: #cccccc; stroke-linejoin: miter"/>
    </g>
    <g id="line2d_25">
     <path d="M 192.730937 54.570438 
L 202.730937 54.570438 
L 212.730937 54.570438 
" style="fill: none; stroke: #1f77b4; stroke-width: 1.5; stroke-linecap: square"/>
    </g>
    <g id="text_15">
     <!-- Vitesse z calculée -->
     <g transform="translate(220.730937 58.070438) scale(0.1 -0.1)">
      <use xlink:href="#DejaVuSans-56"/>
      <use xlink:href="#DejaVuSans-69" x="66.158203"/>
      <use xlink:href="#DejaVuSans-74" x="93.941406"/>
      <use xlink:href="#DejaVuSans-65" x="133.150391"/>
      <use xlink:href="#DejaVuSans-73" x="194.673828"/>
      <use xlink:href="#DejaVuSans-73" x="246.773438"/>
      <use xlink:href="#DejaVuSans-65" x="298.873047"/>
      <use xlink:href="#DejaVuSans-20" x="360.396484"/>
      <use xlink:href="#DejaVuSans-7a" x="392.183594"/>
      <use xlink:href="#DejaVuSans-20" x="444.673828"/>
      <use xlink:href="#DejaVuSans-63" x="476.460938"/>
      <use xlink:href="#DejaVuSans-61" x="531.441406"/>
      <use xlink:href="#DejaVuSans-6c" x="592.720703"/>
      <use xlink:href="#DejaVuSans-63" x="620.503906"/>
      <use xlink:href="#DejaVuSans-75" x="675.484375"/>
      <use xlink:href="#DejaVuSans-6c" x="738.863281"/>
      <use xlink:href="#DejaVuSans-e9" x="766.646484"/>
      <use xlink:href="#DejaVuSans-65" x="828.169922"/>
     </g>
    </g>
    <g id="line2d_26">
     <path d="M 192.730937 69.248563 
L 212.730937 69.248563 
" style="fill: none; stroke: #ff7f0e; stroke-width: 1.5"/>
    </g>
    <g id="text_16">
     <!-- Moyenne de la vitesse z de descente -->
     <g transform="translate(220.730937 72.748563) scale(0.1 -0.1)">
      <defs>
       <path id="DejaVuSans-79" d="M 2059 -325 
Q 1816 -950 1584 -1140 
Q 1353 -1331 966 -1331 
L 506 -1331 
L 506 -850 
L 844 -850 
Q 1081 -850 1212 -737 
Q 1344 -625 1503 -206 
L 1606 56 
L 191 3500 
L 800 3500 
L 1894 763 
L 2988 3500 
L 3597 3500 
L 2059 -325 
z
" transform="scale(0.015625)"/>
       <path id="DejaVuSans-76" d="M 191 3500 
L 800 3500 
L 1894 563 
L 2988 3500 
L 3597 3500 
L 2284 0 
L 1503 0 
L 191 3500 
z
" transform="scale(0.015625)"/>
      </defs>
      <use xlink:href="#DejaVuSans-4d"/>
      <use xlink:href="#DejaVuSans-6f" x="86.279297"/>
      <use xlink:href="#DejaVuSans-79" x="147.460938"/>
      <use xlink:href="#DejaVuSans-65" x="206.640625"/>
      <use xlink:href="#DejaVuSans-6e" x="268.164062"/>
      <use xlink:href="#DejaVuSans-6e" x="331.542969"/>
      <use xlink:href="#DejaVuSans-65" x="394.921875"/>
      <use xlink:href="#DejaVuSans-20" x="456.445312"/>
      <use xlink:href="#DejaVuSans-64" x="488.232422"/>
      <use xlink:href="#DejaVuSans-65" x="551.708984"/>
      <use xlink:href="#DejaVuSans-20" x="613.232422"/>
      <use xlink:href="#DejaVuSans-6c" x="645.019531"/>
      <use xlink:href="#DejaVuSans-61" x="672.802734"/>
      <use xlink:href="#DejaVuSans-20" x="734.082031"/>
      <use xlink:href="#DejaVuSans-76" x="765.869141"/>
      <use xlink:href="#DejaVuSans-69" x="825.048828"/>
      <use xlink:href="#DejaVuSans-74" x="852.832031"/>
      <use xlink:href="#DejaVuSans-65" x="892.041016"/>
      <use xlink:href="#DejaVuSans-73" x="953.564453"/>
      <use xlink:href="#DejaVuSans-73" x="1005.664062"/>
      <use xlink:href="#DejaVuSans-65" x="1057.763672"/>
      <use xlink:href="#DejaVuSans-20" x="1119.287109"/>
      <use xlink:href="#DejaVuSans-7a" x="1151.074219"/>
      <use xlink:href="#DejaVuSans-20" x="1203.564453"/>
      <use xlink:href="#DejaVuSans-64" x="1235.351562"/>
      <use xlink:href="#DejaVuSans-65" x="1298.828125"/>
      <use xlink:href="#DejaVuSans-20" x="1360.351562"/>
      <use xlink:href="#DejaVuSans-64" x="1392.138672"/>
      <use xlink:href="#DejaVuSans-65" x="1455.615234"/>
      <use xlink:href="#DejaVuSans-73" x="1517.138672"/>
      <use xlink:href="#DejaVuSans-63" x="1569.238281"/>
      <use xlink:href="#DejaVuSans-65" x="1624.21875"/>
      <use xlink:href="#DejaVuSans-6e" x="1685.742188"/>
      <use xlink:href="#DejaVuSans-74" x="1749.121094"/>
      <use xlink:href="#DejaVuSans-65" x="1788.330078"/>
     </g>
    </g>
    <g id="line2d_27">
     <path d="M 192.730937 83.926688 
L 202.730937 83.926688 
L 212.730937 83.926688 
" style="fill: none; stroke: #d62728; stroke-width: 1.5; stroke-linecap: square"/>
    </g>
    <g id="text_17">
     <!-- Vitesse z de simulation -->
     <g transform="translate(220.730937 87.426688) scale(0.1 -0.1)">
      <use xlink:href="#DejaVuSans-56"/>
      <use xlink:href="#DejaVuSans-69" x="66.158203"/>
      <use xlink:href="#DejaVuSans-74" x="93.941406"/>
      <use xlink:href="#DejaVuSans-65" x="133.150391"/>
      <use xlink:href="#DejaVuSans-73" x="194.673828"/>
      <use xlink:href="#DejaVuSans-73" x="246.773438"/>
      <use xlink:href="#DejaVuSans-65" x="298.873047"/>
      <use xlink:href="#DejaVuSans-20" x="360.396484"/>
      <use xlink:href="#DejaVuSans-7a" x="392.183594"/>
      <use xlink:href="#DejaVuSans-20" x="444.673828"/>
      <use xlink:href="#DejaVuSans-64" x="476.460938"/>
      <use xlink:href="#DejaVuSans-65" x="539.9375"/>
      <use xlink:href="#DejaVuSans-20" x="601.460938"/>
      <use xlink:href="#DejaVuSans-73" x="633.248047"/>
      <use xlink:href="#DejaVuSans-69" x="685.347656"/>
      <use xlink:href="#DejaVuSans-6d" x="713.130859"/>
      <use xlink:href="#DejaVuSans-75" x="810.542969"/>
      <use xlink:href="#DejaVuSans-6c" x="873.921875"/>
      <use xlink:href="#DejaVuSans-61" x="901.705078"/>
      <use xlink:href="#DejaVuSans-74" x="962.984375"/>
      <use xlink:href="#DejaVuSans-69" x="1002.193359"/>
      <use xlink:href="#DejaVuSans-6f" x="1029.976562"/>
      <use xlink:href="#DejaVuSans-6e" x="1091.158203"/>
     </g>
    </g>
   </g>
  </g>
 </g>
 <defs>
  <clipPath id="pebafa20400">
   <rect x="57.6" y="41.472" width="357.12" height="266.112"/>
  </clipPath>
 </defs>
</svg>
